<svg width="32" height="32" viewBox="0 0 32 32" fill="none" xmlns="http://www.w3.org/2000/svg">
<rect width="32" height="32" rx="16" fill="#5126EA"/>
<path d="M13.4084 13.7464C13.3686 13.3454 13.1979 13.0339 12.8963 12.8118C12.5947 12.5897 12.1854 12.4787 11.6683 12.4787C11.317 12.4787 11.0204 12.5284 10.7784 12.6278C10.5365 12.724 10.3509 12.8582 10.2216 13.0305C10.0956 13.2029 10.0327 13.3984 10.0327 13.6172C10.026 13.7995 10.0642 13.9586 10.147 14.0945C10.2332 14.2304 10.3509 14.348 10.5 14.4474C10.6491 14.5436 10.8215 14.6281 11.017 14.701C11.2126 14.7706 11.4214 14.8303 11.6435 14.88L12.5582 15.0987C13.0024 15.1982 13.41 15.3307 13.7812 15.4964C14.1525 15.6622 14.474 15.866 14.7457 16.108C15.0175 16.3499 15.228 16.6349 15.3771 16.9631C15.5296 17.2912 15.6075 17.6674 15.6108 18.0916C15.6075 18.7147 15.4484 19.255 15.1335 19.7124C14.822 20.1664 14.3712 20.5194 13.7812 20.7713C13.1946 21.0199 12.487 21.1442 11.6584 21.1442C10.8364 21.1442 10.1205 21.0182 9.51065 20.7663C8.90412 20.5144 8.43016 20.1416 8.08878 19.6477C7.75071 19.1506 7.57339 18.5357 7.55682 17.8033H9.63991C9.66312 18.1446 9.76089 18.4297 9.93324 18.6584C10.1089 18.8838 10.3426 19.0545 10.6342 19.1705C10.9292 19.2831 11.2623 19.3395 11.6335 19.3395C11.9981 19.3395 12.3146 19.2865 12.5831 19.1804C12.8549 19.0743 13.0653 18.9268 13.2145 18.7379C13.3636 18.549 13.4382 18.3319 13.4382 18.0866C13.4382 17.858 13.3703 17.6657 13.2344 17.5099C13.1018 17.3542 12.9063 17.2216 12.6477 17.1122C12.3925 17.0028 12.0793 16.9034 11.7081 16.8139L10.5994 16.5355C9.741 16.3267 9.06321 16.0002 8.56605 15.5561C8.06889 15.112 7.82197 14.5137 7.82528 13.7614C7.82197 13.1449 7.98603 12.6063 8.31747 12.1456C8.65223 11.6849 9.11127 11.3253 9.6946 11.0668C10.2779 10.8082 10.9408 10.679 11.6832 10.679C12.4389 10.679 13.0985 10.8082 13.6619 11.0668C14.2287 11.3253 14.6695 11.6849 14.9844 12.1456C15.2992 12.6063 15.4616 13.1399 15.4716 13.7464H13.4084ZM17.0588 21V10.8182H19.2115V19.2251H23.5765V21H17.0588Z" fill="white"/>
</svg>
